<?xml version="1.0" standalone="no"?><!DOCTYPE svg PUBLIC "-//W3C//DTD SVG 1.1//EN" "http://www.w3.org/Graphics/SVG/1.1/DTD/svg11.dtd"><svg t="1657776144296" class="icon" viewBox="0 0 1024 1024" version="1.1" xmlns="http://www.w3.org/2000/svg" p-id="970" xmlns:xlink="http://www.w3.org/1999/xlink" width="200" height="200"><defs><style type="text/css">@font-face { font-family: rbicon; src: url("chrome-extension://dipiagiiohfljcicegpgffpbnjmgjcnf/fonts/rbicon.woff2") format("woff2"); font-weight: normal; font-style: normal; }
</style></defs><path d="M516.28032 146.7392C740.12672 146.7392 921.6 328.192 921.6 552.05888v72.16128c31.63136 31.51872 51.2 75.12064 51.2 123.29984v30.72c0 96.14336-77.93664 174.08-174.08 174.08H674.89792c-17.92 3.328-36.4032 5.05856-55.296 5.05856H404.39808c-18.88256 0-37.35552-1.7408-55.28576-5.04832L225.28 952.32c-96.14336 0-174.08-77.93664-174.08-174.08v-30.72c0-48.1792 19.56864-91.79136 51.2-123.31008v-72.15104c0-223.8464 181.46304-405.31968 405.31968-405.31968h8.56064z" fill="#FFFB71" p-id="971"></path><path d="M748.52352 647.168c53.72928 0 97.28-18.3296 97.28-40.96 0-22.62016-43.55072-40.96-97.28-40.96s-97.28 18.33984-97.28 40.96c0 22.6304 43.55072 40.96 97.28 40.96z m-481.28 0c53.72928 0 97.28-18.3296 97.28-40.96 0-22.62016-43.55072-40.96-97.28-40.96s-97.28 18.33984-97.28 40.96c0 22.6304 43.55072 40.96 97.28 40.96z" fill="#D36F3E" fill-opacity=".3" p-id="972"></path><path d="M766.86336 574.83264c40.21248 0 40.21248-145.73568 0-145.73568a72.83712 72.83712 0 0 0-72.81664 72.86784 72.83712 72.83712 0 0 0 72.8064 72.86784z m-515.97312 0c-40.21248 0-40.21248-145.73568 0-145.73568a72.83712 72.83712 0 0 1 72.81664 72.86784 72.83712 72.83712 0 0 1-72.8064 72.86784z" fill="#463139" p-id="973"></path><path d="M366.36672 650.22976h297.48224l-144.3328-139.1616z" fill="#F7D64A" p-id="974"></path><path d="M366.36672 647.70048h297.48224l-144.3328 139.1616z" fill="#F0A86C" p-id="975"></path><path d="M523.78624 264.50944L573.89056 95.9488a28.3136 28.3136 0 0 0-26.85952-36.37248l-59.33056-0.58368a28.3136 28.3136 0 0 0-27.61728 35.65568l45.54752 169.63584a9.44128 9.44128 0 0 0 18.15552 0.23552z" fill="#BA4C4C" p-id="976"></path><path d="M505.52832 270.77632l-113.664-77.98784a28.3136 28.3136 0 0 1-2.01728-45.1584l29.83936-24.66816a28.3136 28.3136 0 0 1 43.90912 10.33216l55.90016 125.87008a9.44128 9.44128 0 0 1-13.96736 11.61216z" fill="#CF6262" p-id="977"></path><path d="M525.7728 270.77632l113.664-77.98784a28.3136 28.3136 0 0 0 2.01728-45.1584l-29.83936-24.66816a28.3136 28.3136 0 0 0-43.90912 10.33216l-55.90016 125.87008a9.44128 9.44128 0 0 0 13.96736 11.61216z" fill="#CF6262" p-id="978"></path></svg>